<svg width="20" height="20" viewBox="0 0 20 20" fill="none" xmlns="http://www.w3.org/2000/svg">
<path d="M4 15.5V14H5V9C5 8.43056 5.09375 7.88542 5.28125 7.36458C5.46875 6.84375 5.72222 6.35417 6.04167 5.89583L7.14583 7C6.9375 7.29167 6.77778 7.60938 6.66667 7.95312C6.55556 8.29688 6.5 8.64583 6.5 9V14H12L1.875 3.875L2.9375 2.79167L17.0625 16.9375L16 18L13.5 15.5H4ZM15 12.75L13.5 11.25V9C13.5 8.02778 13.1597 7.20139 12.4792 6.52083C11.7986 5.84028 10.9722 5.5 10 5.5C9.68278 5.5 9.37778 5.54167 9.085 5.625C8.79222 5.70833 8.50694 5.82639 8.22917 5.97917L7.14583 4.88521C7.42361 4.68396 7.71875 4.52083 8.03125 4.39583C8.34375 4.27083 8.66667 4.17361 9 4.10417V3C9 2.72222 9.09722 2.48611 9.29167 2.29167C9.48611 2.09722 9.72222 2 10 2C10.2778 2 10.5139 2.09722 10.7083 2.29167C10.9028 2.48611 11 2.72222 11 3V4.10417C12.1806 4.32639 13.1424 4.89583 13.8854 5.8125C14.6285 6.72917 15 7.79167 15 9V12.75ZM9.99563 18C9.58188 18 9.22917 17.8531 8.9375 17.5594C8.64583 17.2656 8.5 16.9125 8.5 16.5H11.5C11.5 16.9167 11.3527 17.2708 11.0581 17.5625C10.7635 17.8542 10.4094 18 9.99563 18Z" fill="black"/>
</svg>
