<?xml version="1.0" encoding="UTF-8"?>
<svg id="Layer_1" data-name="Layer 1" xmlns="http://www.w3.org/2000/svg" viewBox="0 0 375 667">
  <defs>
    <style>
      .cls-1 {
        fill: #656eb3;
      }

      .cls-2 {
        fill: #e5c1db;
      }

      .cls-3 {
        fill: #ff7029;
      }

      .cls-4 {
        fill: #b0d4ff;
      }

      .cls-5 {
        font-family: SOYO-Maple-Regular-KSCpc-EUC-H, 'SOYO Maple';
        font-size: 12px;
      }

      .cls-6 {
        fill: #fcf9d1;
      }

      .cls-7 {
        fill: #bfe0a6;
      }

      .cls-8 {
        fill: #e84d59;
      }
    </style>
  </defs>
  <rect class="cls-6" width="375" height="667"/>
  <circle class="cls-8" cx="109.18" cy="139.55" r="10"/>
  <circle class="cls-3" cx="306.53" cy="485.93" r="10"/>
  <circle class="cls-7" cx="308.13" cy="236.22" r="10"/>
  <circle class="cls-1" cx="286.53" cy="77.44" r="10"/>
  <circle class="cls-2" cx="168.33" cy="595.51" r="10"/>
  <circle class="cls-4" cx="39.13" cy="473.22" r="10"/>
  <text class="cls-5" transform="translate(201.04 477.71) rotate(35.38)"><tspan x="0" y="0">우</tspan></text>
  <text class="cls-5" transform="translate(211.19 484.79) rotate(24.56)"><tspan x="0" y="0">리</tspan></text>
  <text class="cls-5" transform="translate(222.21 489.51) rotate(17.97)"><tspan x="0" y="0">,</tspan></text>
  <text class="cls-5" transform="translate(224.91 490.39) rotate(15.41)"><tspan x="0" y="0"> </tspan></text>
  <text class="cls-5" transform="translate(228.18 491.51) rotate(8.82)"><tspan x="0" y="0">만</tspan></text>
  <text class="cls-5" transform="translate(240.39 493.33) rotate(-1.6)"><tspan x="0" y="0">의</tspan></text>
  <text class="cls-5" transform="translate(252.39 492.69) rotate(-8.71)"><tspan x="0" y="0"> </tspan></text>
  <text class="cls-5" transform="translate(255.9 492.38) rotate(-15.86)"><tspan x="0" y="0">연</tspan></text>
  <text class="cls-5" transform="translate(267.73 488.9) rotate(-26.21)"><tspan x="0" y="0">결</tspan></text>
  <text class="cls-5" transform="translate(278.59 483.45) rotate(-34.54)"><tspan x="0" y="0">고</tspan></text>
  <text class="cls-5" transform="translate(288.48 476.63) rotate(-41.66)"><tspan x="0" y="0">리</tspan></text>
  <text class="cls-5" transform="translate(112.68 192.51) rotate(.44)"><tspan x="0" y="0"> </tspan></text>
  <text class="cls-5" transform="translate(115.48 192.53) rotate(.84)"><tspan x="0" y="0"> </tspan></text>
  <text class="cls-5" transform="translate(118.32 192.57) rotate(1.26)"><tspan x="0" y="0"> </tspan></text>
  <text class="cls-5" transform="translate(121.14 192.64) rotate(1.72)"><tspan x="0" y="0"> </tspan></text>
  <text class="cls-5" transform="translate(123.98 192.72) rotate(2.21)"><tspan x="0" y="0"> </tspan></text>
  <text class="cls-5" transform="translate(126.81 192.83) rotate(2.72)"><tspan x="0" y="0"> </tspan></text>
  <text class="cls-5" transform="translate(129.63 192.96) rotate(3.28)"><tspan x="0" y="0"> </tspan></text>
  <text class="cls-5" transform="translate(132.45 193.13) rotate(3.89)"><tspan x="0" y="0"> </tspan></text>
  <text class="cls-5" transform="translate(135.26 193.32) rotate(4.53)"><tspan x="0" y="0"> </tspan></text>
  <text class="cls-5" transform="translate(138.07 193.54) rotate(5.24)"><tspan x="0" y="0"> </tspan></text>
  <text class="cls-5" transform="translate(140.87 193.8) rotate(6)"><tspan x="0" y="0"> </tspan></text>
  <text class="cls-5" transform="translate(143.65 194.09) rotate(6.83)"><tspan x="0" y="0"> </tspan></text>
  <text class="cls-5" transform="translate(146.44 194.32) rotate(9.27)"><tspan x="0" y="0">스</tspan></text>
  <text class="cls-5" transform="translate(157.5 196.08) rotate(14.6)"><tspan x="0" y="0">프</tspan></text>
  <text class="cls-5" transform="translate(168.31 198.83) rotate(22.52)"><tspan x="0" y="0">링</tspan></text>
  <text class="cls-5" transform="translate(178.56 203.33) rotate(28.13)"><tspan x="0" y="0"> </tspan></text>
  <text class="cls-5" transform="translate(181.04 204.5) rotate(31.55)"><tspan x="0" y="0">너</tspan></text>
  <text class="cls-5" transform="translate(190.6 210.34) rotate(37.5)"><tspan x="0" y="0">머</tspan></text>
  <text class="cls-5" transform="translate(199.49 217.14) rotate(44.03)"><tspan x="0" y="0">의</tspan></text>
  <text class="cls-5" transform="translate(207.47 225.07) rotate(48.34)"><tspan x="0" y="0">,</tspan></text>
  <text class="cls-5" transform="translate(209.16 226.97) rotate(50.08)"><tspan x="0" y="0"> </tspan></text>
  <text class="cls-5" transform="translate(211.03 228.91) rotate(54.83)"><tspan x="0" y="0">우</tspan></text>
  <text class="cls-5" transform="translate(217.47 237.98) rotate(63.2)"><tspan x="0" y="0">리</tspan></text>
</svg>